<svg width="23" height="23" viewBox="0 0 23 23" fill="none" xmlns="http://www.w3.org/2000/svg">
<g clip-path="url(#clip0_1_248)">
<path d="M23 11.5C23 5.14878 17.8512 0 11.5 0C5.14878 0 0 5.14878 0 11.5C0 16.893 3.71312 21.4185 8.72206 22.6614V15.0144H6.35076V11.5H8.72206V9.98568C8.72206 6.07154 10.4935 4.2573 14.3364 4.2573C15.065 4.2573 16.3222 4.40036 16.8365 4.54296V7.72846C16.5651 7.69994 16.0936 7.68568 15.508 7.68568C13.6224 7.68568 12.8938 8.40006 12.8938 10.2571V11.5H16.6502L16.0048 15.0144H12.8938V22.9158C18.5881 22.2281 23.0005 17.3797 23.0005 11.5H23Z" fill="#858585"/>
<path d="M16.0044 15.0144L16.6497 11.5H12.8934V10.2571C12.8934 8.40008 13.622 7.6857 15.5076 7.6857C16.0931 7.6857 16.5646 7.69996 16.836 7.72848V4.54298C16.3218 4.39992 15.0646 4.25732 14.3359 4.25732C10.4931 4.25732 8.72164 6.07156 8.72164 9.9857V11.5H6.35034V15.0144H8.72164V22.6615C9.61128 22.8823 10.5419 23 11.4996 23C11.9711 23 12.4361 22.971 12.8929 22.9158V15.0144H16.0039H16.0044Z" fill="white"/>
</g>
<defs>
<clipPath id="clip0_1_248">
<rect width="23" height="23" fill="white"/>
</clipPath>
</defs>
</svg>
